<svg width="2150" height="509" viewBox="0 0 2150 509" fill="none" xmlns="http://www.w3.org/2000/svg">
<g clip-path="url(#clip0_116_713)">
<path d="M864.9 172.46C855.94 162.66 844.46 154.82 830.46 148.94C816.74 143.06 801.34 140.12 784.26 140.12C766.9 140.12 751.22 143.34 737.22 149.78C723.22 155.94 711.32 164.48 701.52 175.4C691.72 186.32 684.16 199.06 678.84 213.62C673.52 227.9 670.86 243.16 670.86 259.4C670.86 275.92 673.52 291.46 678.84 306.02C684.16 320.58 691.72 333.32 701.52 344.24C711.32 354.88 723.36 363.28 737.64 369.44C751.92 375.6 767.88 378.68 785.52 378.68C799.52 378.68 812.4 377.42 824.16 374.9C835.92 372.38 846.14 368.74 854.82 363.98V281.24H788.88V245.96H895.98V390.02C880.3 398.42 863.22 404.86 844.74 409.34C826.26 413.82 806.1 416.06 784.26 416.06C761.02 416.06 739.6 412.28 720 404.72C700.68 396.88 684.02 386.1 670.02 372.38C656.02 358.38 645.1 341.86 637.26 322.82C629.42 303.5 625.5 282.36 625.5 259.4C625.5 236.16 629.42 215.02 637.26 195.98C645.38 176.66 656.44 160.28 670.44 146.84C684.72 133.12 701.52 122.48 720.84 114.92C740.16 107.36 761.16 103.58 783.84 103.58C807.64 103.58 828.78 107.08 847.26 114.08C866.02 121.08 881.56 130.46 893.88 142.22L864.9 172.46Z" fill="black"/>
<path d="M937.065 252.26C937.065 246.94 936.925 240.08 936.645 231.68C936.365 223.28 935.945 215.86 935.385 209.42H972.765C973.325 214.46 973.745 220.34 974.025 227.06C974.305 233.5 974.445 238.82 974.445 243.02H975.705C981.305 231.26 989.425 221.88 1000.06 214.88C1010.98 207.6 1023.16 203.96 1036.6 203.96C1042.76 203.96 1047.94 204.52 1052.14 205.64L1050.46 242.18C1044.86 240.78 1038.84 240.08 1032.4 240.08C1022.88 240.08 1014.62 241.9 1007.62 245.54C1000.62 248.9 994.745 253.52 989.985 259.4C985.505 265.28 982.145 272.14 979.905 279.98C977.665 287.54 976.545 295.52 976.545 303.92V408.5H937.065V252.26Z" fill="black"/>
<path d="M1136.48 365.66H1137.32L1192.34 209.42H1234.34L1137.74 455.54C1134.38 463.94 1130.74 471.36 1126.82 477.8C1122.9 484.52 1118.28 490.12 1112.96 494.6C1107.64 499.36 1101.34 503 1094.06 505.52C1087.06 508.04 1078.66 509.3 1068.86 509.3C1064.66 509.3 1060.32 509.02 1055.84 508.46C1051.64 508.18 1047.3 507.48 1042.82 506.36L1046.6 471.5C1053.32 473.74 1059.9 474.86 1066.34 474.86C1076.7 474.86 1084.4 471.92 1089.44 466.04C1094.48 460.44 1099.1 452.32 1103.3 441.68L1115.9 408.5L1030.64 209.42H1074.74L1136.48 365.66Z" fill="black"/>
<path d="M1283.65 509.3H1244.17V209.42H1282.81V240.5H1284.07C1290.51 229.86 1299.89 221.18 1312.21 214.46C1324.81 207.46 1339.37 203.96 1355.89 203.96C1370.73 203.96 1384.17 206.62 1396.21 211.94C1408.53 217.26 1419.03 224.68 1427.71 234.2C1436.67 243.72 1443.53 254.92 1448.29 267.8C1453.05 280.4 1455.43 293.98 1455.43 308.54C1455.43 323.1 1453.05 336.82 1448.29 349.7C1443.53 362.58 1436.81 373.78 1428.13 383.3C1419.45 392.82 1408.95 400.38 1396.63 405.98C1384.31 411.3 1370.45 413.96 1355.05 413.96C1340.77 413.96 1327.33 410.88 1314.73 404.72C1302.13 398.56 1292.19 389.88 1284.91 378.68H1283.65V509.3ZM1414.69 308.54C1414.69 299.3 1413.29 290.34 1410.49 281.66C1407.69 272.98 1403.49 265.28 1397.89 258.56C1392.29 251.84 1385.29 246.52 1376.89 242.6C1368.77 238.68 1359.25 236.72 1348.33 236.72C1338.25 236.72 1329.01 238.68 1320.61 242.6C1312.49 246.52 1305.49 251.84 1299.61 258.56C1293.73 265.28 1289.11 272.98 1285.75 281.66C1282.67 290.34 1281.13 299.44 1281.13 308.96C1281.13 318.48 1282.67 327.58 1285.75 336.26C1289.11 344.94 1293.73 352.64 1299.61 359.36C1305.49 365.8 1312.49 370.98 1320.61 374.9C1329.01 378.82 1338.25 380.78 1348.33 380.78C1359.25 380.78 1368.77 378.82 1376.89 374.9C1385.29 370.7 1392.29 365.24 1397.89 358.52C1403.49 351.8 1407.69 344.1 1410.49 335.42C1413.29 326.74 1414.69 317.78 1414.69 308.54Z" fill="black"/>
<path d="M1523.17 239.66C1527.93 229.86 1536.05 221.46 1547.53 214.46C1559.01 207.46 1571.89 203.96 1586.17 203.96C1599.05 203.96 1610.11 206.2 1619.35 210.68C1628.59 214.88 1636.29 220.62 1642.45 227.9C1648.61 235.18 1653.09 243.72 1655.89 253.52C1658.97 263.32 1660.51 273.82 1660.51 285.02V408.5H1621.03V298.46C1621.03 290.34 1620.33 282.64 1618.93 275.36C1617.81 268.08 1615.57 261.64 1612.21 256.04C1608.85 250.44 1604.23 245.96 1598.35 242.6C1592.75 239.24 1585.33 237.56 1576.09 237.56C1560.41 237.56 1547.53 243.58 1537.45 255.62C1527.37 267.38 1522.33 283.2 1522.33 303.08V408.5H1482.85V90.98H1522.33V239.66H1523.17Z" fill="black"/>
<path d="M1900.54 308.54C1900.54 323.94 1897.74 338.08 1892.14 350.96C1886.82 363.84 1879.26 375.04 1869.46 384.56C1859.94 393.8 1848.6 401.08 1835.44 406.4C1822.28 411.44 1808.14 413.96 1793.02 413.96C1777.9 413.96 1763.76 411.44 1750.6 406.4C1737.44 401.08 1726.1 393.8 1716.58 384.56C1707.06 375.04 1699.5 363.84 1693.9 350.96C1688.58 338.08 1685.92 323.94 1685.92 308.54C1685.92 293.14 1688.58 279.14 1693.9 266.54C1699.5 253.66 1707.06 242.6 1716.58 233.36C1726.1 224.12 1737.44 216.98 1750.6 211.94C1763.76 206.62 1777.9 203.96 1793.02 203.96C1808.14 203.96 1822.28 206.62 1835.44 211.94C1848.6 216.98 1859.94 224.12 1869.46 233.36C1879.26 242.6 1886.82 253.66 1892.14 266.54C1897.74 279.14 1900.54 293.14 1900.54 308.54ZM1859.38 308.54C1859.38 299.02 1857.84 289.92 1854.76 281.24C1851.96 272.56 1847.76 265 1842.16 258.56C1836.56 251.84 1829.56 246.52 1821.16 242.6C1813.04 238.68 1803.66 236.72 1793.02 236.72C1782.38 236.72 1772.86 238.68 1764.46 242.6C1756.34 246.52 1749.48 251.84 1743.88 258.56C1738.28 265 1733.94 272.56 1730.86 281.24C1728.06 289.92 1726.66 299.02 1726.66 308.54C1726.66 318.06 1728.06 327.16 1730.86 335.84C1733.94 344.52 1738.28 352.22 1743.88 358.94C1749.48 365.66 1756.34 370.98 1764.46 374.9C1772.86 378.82 1782.38 380.78 1793.02 380.78C1803.66 380.78 1813.04 378.82 1821.16 374.9C1829.56 370.98 1836.56 365.66 1842.16 358.94C1847.76 352.22 1851.96 344.52 1854.76 335.84C1857.84 327.16 1859.38 318.06 1859.38 308.54Z" fill="black"/>
<path d="M1962.64 209.42C1963.2 214.46 1963.62 220.2 1963.9 226.64C1964.18 232.8 1964.32 237.98 1964.32 242.18H1965.58C1968.1 236.86 1971.46 231.96 1975.66 227.48C1980.14 222.72 1985.18 218.66 1990.78 215.3C1996.38 211.66 2002.54 208.86 2009.26 206.9C2015.98 204.94 2022.98 203.96 2030.26 203.96C2043.14 203.96 2054.2 206.2 2063.44 210.68C2072.68 214.88 2080.38 220.62 2086.54 227.9C2092.7 235.18 2097.18 243.72 2099.98 253.52C2103.06 263.32 2104.6 273.82 2104.6 285.02V408.5H2065.12V298.04C2065.12 289.92 2064.42 282.22 2063.02 274.94C2061.9 267.66 2059.66 261.22 2056.3 255.62C2052.94 250.02 2048.32 245.54 2042.44 242.18C2036.56 238.82 2029 237.14 2019.76 237.14C2004.08 237.14 1991.2 243.16 1981.12 255.2C1971.32 266.96 1966.42 282.78 1966.42 302.66V408.5H1926.94V252.26C1926.94 246.94 1926.8 240.08 1926.52 231.68C1926.24 223.28 1925.82 215.86 1925.26 209.42H1962.64Z" fill="black"/>
<path fill-rule="evenodd" clip-rule="evenodd" d="M109.037 1C48.8181 1 0 49.9853 0 110.413V376.587C0 437.015 48.8181 486 109.037 486H374.963C435.182 486 484 437.015 484 376.587V110.413C484 49.9853 435.182 1 374.963 1H109.037Z" fill="#FCB827"/>
<path fill-rule="evenodd" clip-rule="evenodd" d="M452.317 33.2085L32.2065 454.247C52.494 474.452 79.8416 486 109.013 486H374.955C435.179 486 484 437.004 484 376.564V110.333C484 81.0362 472.476 53.5722 452.317 33.2085Z" fill="#009DDC"/>
</g>
<defs>
<clipPath id="clip0_116_713">
<rect width="2150" height="509" fill="white"/>
</clipPath>
</defs>
</svg>
