<svg width="2107" height="509" viewBox="0 0 2107 509" fill="none" xmlns="http://www.w3.org/2000/svg">
<g clip-path="url(#clip0_114_706)">
<path d="M865.4 171.96C856.44 162.16 844.96 154.32 830.96 148.44C817.24 142.56 801.84 139.62 784.76 139.62C767.4 139.62 751.72 142.84 737.72 149.28C723.72 155.44 711.82 163.98 702.02 174.9C692.22 185.82 684.66 198.56 679.34 213.12C674.02 227.4 671.36 242.66 671.36 258.9C671.36 275.42 674.02 290.96 679.34 305.52C684.66 320.08 692.22 332.82 702.02 343.74C711.82 354.38 723.86 362.78 738.14 368.94C752.42 375.1 768.38 378.18 786.02 378.18C800.02 378.18 812.9 376.92 824.66 374.4C836.42 371.88 846.64 368.24 855.32 363.48V280.74H789.38V245.46H896.48V389.52C880.8 397.92 863.72 404.36 845.24 408.84C826.76 413.32 806.6 415.56 784.76 415.56C761.52 415.56 740.1 411.78 720.5 404.22C701.18 396.38 684.52 385.6 670.52 371.88C656.52 357.88 645.6 341.36 637.76 322.32C629.92 303 626 281.86 626 258.9C626 235.66 629.92 214.52 637.76 195.48C645.88 176.16 656.94 159.78 670.94 146.34C685.22 132.62 702.02 121.98 721.34 114.42C740.66 106.86 761.66 103.08 784.34 103.08C808.14 103.08 829.28 106.58 847.76 113.58C866.52 120.58 882.06 129.96 894.38 141.72L865.4 171.96ZM965.915 251.76C965.915 246.44 965.775 239.58 965.495 231.18C965.215 222.78 964.795 215.36 964.235 208.92H1001.61C1002.17 213.96 1002.59 219.84 1002.87 226.56C1003.15 233 1003.29 238.32 1003.29 242.52H1004.55C1010.15 230.76 1018.27 221.38 1028.91 214.38C1039.83 207.1 1052.01 203.46 1065.45 203.46C1071.61 203.46 1076.79 204.02 1080.99 205.14L1079.31 241.68C1073.71 240.28 1067.69 239.58 1061.25 239.58C1051.73 239.58 1043.47 241.4 1036.47 245.04C1029.47 248.4 1023.59 253.02 1018.83 258.9C1014.35 264.78 1010.99 271.64 1008.75 279.48C1006.51 287.04 1005.39 295.02 1005.39 303.42V408H965.915V251.76ZM1193.68 365.16H1194.52L1249.54 208.92H1291.54L1194.94 455.04C1191.58 463.44 1187.94 470.86 1184.02 477.3C1180.1 484.02 1175.48 489.62 1170.16 494.1C1164.84 498.86 1158.54 502.5 1151.26 505.02C1144.26 507.54 1135.86 508.8 1126.06 508.8C1121.86 508.8 1117.52 508.52 1113.04 507.96C1108.84 507.68 1104.5 506.98 1100.02 505.86L1103.8 471C1110.52 473.24 1117.1 474.36 1123.54 474.36C1133.9 474.36 1141.6 471.42 1146.64 465.54C1151.68 459.94 1156.3 451.82 1160.5 441.18L1173.1 408L1087.84 208.92H1131.94L1193.68 365.16ZM1369.2 508.8H1329.72V208.92H1368.36V240H1369.62C1376.06 229.36 1385.44 220.68 1397.76 213.96C1410.36 206.96 1424.92 203.46 1441.44 203.46C1456.28 203.46 1469.72 206.12 1481.76 211.44C1494.08 216.76 1504.58 224.18 1513.26 233.7C1522.22 243.22 1529.08 254.42 1533.84 267.3C1538.6 279.9 1540.98 293.48 1540.98 308.04C1540.98 322.6 1538.6 336.32 1533.84 349.2C1529.08 362.08 1522.36 373.28 1513.68 382.8C1505 392.32 1494.5 399.88 1482.18 405.48C1469.86 410.8 1456 413.46 1440.6 413.46C1426.32 413.46 1412.88 410.38 1400.28 404.22C1387.68 398.06 1377.74 389.38 1370.46 378.18H1369.2V508.8ZM1500.24 308.04C1500.24 298.8 1498.84 289.84 1496.04 281.16C1493.24 272.48 1489.04 264.78 1483.44 258.06C1477.84 251.34 1470.84 246.02 1462.44 242.1C1454.32 238.18 1444.8 236.22 1433.88 236.22C1423.8 236.22 1414.56 238.18 1406.16 242.1C1398.04 246.02 1391.04 251.34 1385.16 258.06C1379.28 264.78 1374.66 272.48 1371.3 281.16C1368.22 289.84 1366.68 298.94 1366.68 308.46C1366.68 317.98 1368.22 327.08 1371.3 335.76C1374.66 344.44 1379.28 352.14 1385.16 358.86C1391.04 365.3 1398.04 370.48 1406.16 374.4C1414.56 378.32 1423.8 380.28 1433.88 380.28C1444.8 380.28 1454.32 378.32 1462.44 374.4C1470.84 370.2 1477.84 364.74 1483.44 358.02C1489.04 351.3 1493.24 343.6 1496.04 334.92C1498.84 326.24 1500.24 317.28 1500.24 308.04ZM1637.07 239.16C1641.83 229.36 1649.95 220.96 1661.43 213.96C1672.91 206.96 1685.79 203.46 1700.07 203.46C1712.95 203.46 1724.01 205.7 1733.25 210.18C1742.49 214.38 1750.19 220.12 1756.35 227.4C1762.51 234.68 1766.99 243.22 1769.79 253.02C1772.87 262.82 1774.41 273.32 1774.41 284.52V408H1734.93V297.96C1734.93 289.84 1734.23 282.14 1732.83 274.86C1731.71 267.58 1729.47 261.14 1726.11 255.54C1722.75 249.94 1718.13 245.46 1712.25 242.1C1706.65 238.74 1699.23 237.06 1689.99 237.06C1674.31 237.06 1661.43 243.08 1651.35 255.12C1641.27 266.88 1636.23 282.7 1636.23 302.58V408H1596.75V90.48H1636.23V239.16H1637.07ZM2042.79 308.04C2042.79 323.44 2039.99 337.58 2034.39 350.46C2029.07 363.34 2021.51 374.54 2011.71 384.06C2002.19 393.3 1990.85 400.58 1977.69 405.9C1964.53 410.94 1950.39 413.46 1935.27 413.46C1920.15 413.46 1906.01 410.94 1892.85 405.9C1879.69 400.58 1868.35 393.3 1858.83 384.06C1849.31 374.54 1841.75 363.34 1836.15 350.46C1830.83 337.58 1828.17 323.44 1828.17 308.04C1828.17 292.64 1830.83 278.64 1836.15 266.04C1841.75 253.16 1849.31 242.1 1858.83 232.86C1868.35 223.62 1879.69 216.48 1892.85 211.44C1906.01 206.12 1920.15 203.46 1935.27 203.46C1950.39 203.46 1964.53 206.12 1977.69 211.44C1990.85 216.48 2002.19 223.62 2011.71 232.86C2021.51 242.1 2029.07 253.16 2034.39 266.04C2039.99 278.64 2042.79 292.64 2042.79 308.04ZM2001.63 308.04C2001.63 298.52 2000.09 289.42 1997.01 280.74C1994.21 272.06 1990.01 264.5 1984.41 258.06C1978.81 251.34 1971.81 246.02 1963.41 242.1C1955.29 238.18 1945.91 236.22 1935.27 236.22C1924.63 236.22 1915.11 238.18 1906.71 242.1C1898.59 246.02 1891.73 251.34 1886.13 258.06C1880.53 264.5 1876.19 272.06 1873.11 280.74C1870.31 289.42 1868.91 298.52 1868.91 308.04C1868.91 317.56 1870.31 326.66 1873.11 335.34C1876.19 344.02 1880.53 351.72 1886.13 358.44C1891.73 365.16 1898.59 370.48 1906.71 374.4C1915.11 378.32 1924.63 380.28 1935.27 380.28C1945.91 380.28 1955.29 378.32 1963.41 374.4C1971.81 370.48 1978.81 365.16 1984.41 358.44C1990.01 351.72 1994.21 344.02 1997.01 335.34C2000.09 326.66 2001.63 317.56 2001.63 308.04ZM2133.24 208.92C2133.8 213.96 2134.22 219.7 2134.5 226.14C2134.78 232.3 2134.92 237.48 2134.92 241.68H2136.18C2138.7 236.36 2142.06 231.46 2146.26 226.98C2150.74 222.22 2155.78 218.16 2161.38 214.8C2166.98 211.16 2173.14 208.36 2179.86 206.4C2186.58 204.44 2193.58 203.46 2200.86 203.46C2213.74 203.46 2224.8 205.7 2234.04 210.18C2243.28 214.38 2250.98 220.12 2257.14 227.4C2263.3 234.68 2267.78 243.22 2270.58 253.02C2273.66 262.82 2275.2 273.32 2275.2 284.52V408H2235.72V297.54C2235.72 289.42 2235.02 281.72 2233.62 274.44C2232.5 267.16 2230.26 260.72 2226.9 255.12C2223.54 249.52 2218.92 245.04 2213.04 241.68C2207.16 238.32 2199.6 236.64 2190.36 236.64C2174.68 236.64 2161.8 242.66 2151.72 254.7C2141.92 266.46 2137.02 282.28 2137.02 302.16V408H2097.54V251.76C2097.54 246.44 2097.4 239.58 2097.12 231.18C2096.84 222.78 2096.42 215.36 2095.86 208.92H2133.24Z" fill="white"/>
<path fill-rule="evenodd" clip-rule="evenodd" d="M109.537 0.5C49.3181 0.5 0.5 49.4853 0.5 109.913V376.087C0.5 436.515 49.3181 485.5 109.537 485.5H375.463C435.682 485.5 484.5 436.515 484.5 376.087V109.913C484.5 49.4853 435.682 0.5 375.463 0.5H109.537Z" fill="#FCB827" stroke="#979797"/>
<path fill-rule="evenodd" clip-rule="evenodd" d="M452.817 32.7085L32.7065 453.747C52.994 473.952 80.3416 485.5 109.513 485.5H375.455C435.679 485.5 484.5 436.504 484.5 376.064V109.833C484.5 80.5362 472.976 53.0722 452.817 32.7085Z" fill="#009DDC" stroke="#979797"/>
</g>
<defs>
<clipPath id="clip0_114_706">
<rect width="2107" height="509" fill="white"/>
</clipPath>
</defs>
</svg>
