<?xml version="1.0" encoding="UTF-8"?>
<svg width="2150px" height="509px" viewBox="0 0 2107 509" version="1.1" xmlns="http://www.w3.org/2000/svg" xmlns:xlink="http://www.w3.org/1999/xlink">
    <!-- Generator: Sketch 52.6 (67491) - http://www.bohemiancoding.com/sketch -->
    <title>Group 4 Copy</title>
    <desc>Created with Sketch.</desc>
    <g id="Page-1" stroke="none" stroke-width="1" fill="none" fill-rule="evenodd">
        <g id="Group-4-Copy" transform="translate(0.000000, -12.000000)">
            <text id="Gryphon-Logo-4-(t)-Copy-3" font-family="AvenirNext-Medium, Avenir Next" font-size="420" font-weight="400" letter-spacing="-28" fill="#ffffff">
                <tspan x="605" y="420">Gryphon</tspan>
            </text>
            <g id="Gryphon-Logo-4-(i)-Copy-3" transform="translate(0.000000, 12.000000)" stroke="#979797">
                <path d="M109.537415,0.5 C49.318097,0.5 0.5,49.485309 0.5,109.912603 L0.5,376.087397 C0.5,436.514691 49.318097,485.5 109.537415,485.5 L375.462585,485.5 C435.681903,485.5 484.5,436.514691 484.5,376.087397 L484.5,109.912603 C484.5,49.485309 435.681903,0.5 375.462585,0.5 L109.537415,0.5 Z" id="Rectangle-Copy-6" fill="#FCB827"></path>
                <path d="M452.81758,32.7084882 L32.7066387,453.74677 C52.9940538,473.951717 80.3416775,485.5 109.512958,485.5 L375.45545,485.5 C435.678692,485.5 484.5,436.504355 484.5,376.064275 L484.5,109.833487 C484.5,80.5361674 472.976088,53.0722416 452.817578,32.70849 Z" id="Path" fill="#009DDC"></path>
            </g>
        </g>
    </g>
</svg>