<svg version="1" xmlns="http://www.w3.org/2000/svg" width="645.333" height="645.333" viewBox="0 0 484.000000 484.000000"><path d="M96.5.6c-1.1.2-5.8 1.2-10.5 2-4.7.9-8.9 2.1-9.5 2.5-.5.5-1.5.9-2.3.9-.8 0-5.2 1.8-9.9 4C32.5 24.9 12 50.1 2.3 86 .7 92 .6 103 .4 237.5c-.2 79.7.1 147.7.6 151 1.9 13.8 5.3 24.5 11.7 36.6C29 456 57.8 477 91.5 482.5c12.8 2.1 290.9 2.1 302.5 0 33.6-6.1 63.4-28.6 78.5-59.4 2.4-4.7 5.2-11.5 6.4-15.1 5.1-15 4.9-11.3 4.7-169l-.2-147.5-2.1-7.5c-7.9-27.6-20.8-46.8-42.3-63-8.1-6.1-26.1-14.6-37.5-17.7l-10-2.8L245 .4C164.4.3 97.6.4 96.5.6z"/></svg>