<?xml version="1.0" encoding="UTF-8"?>
<svg width="180px" height="180px" viewBox="0 0 180 180" version="1.1" xmlns="http://www.w3.org/2000/svg" xmlns:xlink="http://www.w3.org/1999/xlink">
    <!-- Generator: Sketch 52.6 (67491) - http://www.bohemiancoding.com/sketch -->
    <title>Gryphon Logo 4 (i)</title>
    <desc>Created with Sketch.</desc>
    <g id="SEO" stroke="none" stroke-width="1" fill="none" fill-rule="evenodd">
        <g id="Gryphon-Logo-4-(i)">
            <path d="M40.6530612,10 C23.7268889,10 10,23.7455649 10,40.7083715 L10,139.291628 C10,156.254435 23.7268889,170 40.6530612,170 L139.346939,170 C156.273111,170 170,156.254435 170,139.291628 L170,40.7083715 C170,23.7455649 156.273111,10 139.346939,10 L40.6530612,10 Z" id="Rectangle-Copy-6" stroke="#000000" stroke-width="20"></path>
            <path d="M23.564463,156.500538 L19,151.936075 L151.936075,19 L156.500547,23.5644718 L168.06502,12 C175.437972,19.3646478 180,29.5497493 180,40.801819 L180,139.318939 C180,161.786469 161.811213,180 139.374207,180 L40.7465274,180 C29.5179733,180 19.3533779,175.438454 12,168.064999 L23.564463,156.500538 Z" id="Path" fill="#000000"></path>
        </g>
    </g>
</svg>